<?xml version="1.0" standalone="no"?>
<!DOCTYPE svg PUBLIC "-//W3C//DTD SVG 20010904//EN"
 "http://www.w3.org/TR/2001/REC-SVG-20010904/DTD/svg10.dtd">
<svg version="1.0" xmlns="http://www.w3.org/2000/svg"
 width="500.000000pt" height="500.000000pt" viewBox="0 0 500.000000 500.000000"
 preserveAspectRatio="xMidYMid meet">

<g transform="translate(0.000000,500.000000) scale(0.100000,-0.100000)"
fill="#000000" stroke="none">
<path d="M2390 4409 c-100 -13 -265 -69 -349 -119 -153 -89 -273 -219 -354
-384 -71 -143 -88 -210 -94 -366 -6 -157 11 -250 71 -373 19 -40 32 -75 30
-79 -3 -5 -25 -8 -50 -8 -95 0 -144 -54 -144 -158 0 -55 -5 -73 -37 -130 -65
-116 -49 -202 45 -245 41 -19 63 -22 174 -21 l127 2 -10 -27 c-43 -111 -134
-164 -244 -141 -65 14 -141 76 -170 139 -18 40 -45 56 -45 26 0 -41 87 -153
141 -180 83 -43 183 -37 261 16 24 16 47 29 52 29 5 0 7 -60 4 -138 -6 -160
-21 -205 -88 -271 -24 -23 -81 -59 -128 -82 -95 -45 -173 -93 -215 -133 -41
-38 -25 -54 51 -48 91 6 98 -1 105 -105 5 -92 24 -164 44 -170 7 -3 29 32 52
81 47 97 82 131 206 197 44 23 99 57 122 76 23 18 44 33 47 33 4 0 -7 -24 -23
-53 -49 -85 -64 -165 -58 -292 5 -107 23 -185 44 -192 5 -2 34 26 64 62 30 35
57 65 61 65 3 0 22 -22 42 -48 19 -27 58 -70 86 -96 55 -52 87 -58 82 -16 -2
14 -4 70 -5 125 -2 88 2 114 32 213 19 61 37 112 40 112 4 0 30 -27 60 -60 71
-81 167 -153 276 -205 119 -58 219 -85 340 -92 l100 -6 -76 51 c-113 76 -164
155 -195 304 -37 170 21 415 114 489 54 42 88 49 244 49 161 0 202 9 232 51
19 28 20 72 4 134 l-12 45 47 44 c51 46 53 52 36 90 -10 22 -8 29 15 57 26 31
28 59 5 83 -5 6 -9 23 -9 38 0 23 8 32 50 53 54 27 70 48 70 94 0 34 -19 51
-120 110 -39 23 -77 55 -95 81 -27 38 -30 49 -30 118 0 75 2 81 77 237 87 182
103 234 95 307 -10 84 -51 151 -151 252 -183 185 -420 311 -679 361 -105 20
-271 27 -367 14z m68 -147 c-114 -98 -268 -262 -268 -285 0 -43 35 -21 153 96
67 67 133 131 145 140 151 116 174 126 275 110 l62 -9 -142 -140 c-78 -76
-172 -168 -210 -203 -169 -159 -290 -282 -346 -351 -32 -41 -61 -77 -63 -79
-1 -2 2 13 8 33 6 19 16 32 21 29 6 -3 7 -1 3 6 -8 13 35 92 71 131 38 41 43
90 8 90 -20 0 -105 -118 -149 -207 -21 -42 -59 -133 -83 -202 -24 -69 -46
-127 -48 -129 -2 -2 -4 61 -4 140 -3 263 53 449 184 617 124 159 335 297 458
300 25 1 17 -9 -75 -87z m-212 35 c-147 -110 -259 -234 -318 -350 -73 -144
-115 -350 -106 -525 l5 -87 -43 90 c-94 196 -94 363 -1 518 108 179 235 288
412 354 75 28 88 28 51 0z m711 -30 c10 -7 5 -20 -18 -54 -29 -42 -32 -43 -45
-26 -14 16 -14 16 -4 -5 14 -28 10 -34 -118 -160 -46 -45 -88 -79 -94 -76 -6
4 -8 3 -5 -3 3 -5 -40 -54 -96 -109 -281 -273 -422 -464 -518 -706 -23 -56
-43 -104 -44 -106 -6 -7 -74 28 -82 42 -17 30 3 138 39 216 19 41 41 82 49 90
24 26 79 98 79 104 0 27 264 321 281 314 9 -5 39 23 34 32 -2 4 19 29 48 56
28 26 117 109 197 184 80 74 166 154 192 177 46 41 78 51 105 30z m174 -165
c16 -81 -29 -204 -115 -317 -67 -87 -128 -154 -139 -152 -7 1 -11 -3 -10 -10
4 -22 -343 -313 -373 -313 -4 0 41 47 100 105 59 58 113 102 118 99 7 -4 8 -2
4 5 -5 7 10 30 38 59 25 26 76 86 114 134 38 48 73 84 77 80 5 -4 5 -1 1 6 -4
6 1 24 11 40 53 77 97 203 109 309 l6 62 26 -30 c13 -17 29 -51 33 -77z m-124
26 c-9 -71 -46 -180 -59 -172 -7 4 -8 2 -4 -4 7 -12 -31 -88 -68 -134 -11 -14
-34 -45 -49 -67 -16 -23 -33 -38 -39 -35 -7 4 -8 2 -4 -5 7 -11 -479 -506
-499 -506 -5 -1 -9 -7 -7 -14 1 -7 -23 -40 -53 -74 -41 -45 -65 -64 -89 -68
l-33 -5 19 49 c40 104 119 242 133 230 4 -4 5 -3 1 4 -7 12 56 100 134 188 19
23 64 74 100 115 111 128 253 270 263 263 6 -3 7 -1 3 5 -3 6 7 24 24 40 16
17 30 28 30 25 0 -3 15 12 33 34 38 48 160 182 166 183 2 0 1 -23 -2 -52z
m268 -33 c97 -72 100 -83 64 -201 -60 -198 -275 -434 -592 -651 -45 -31 -101
-69 -124 -85 -24 -16 -48 -26 -54 -22 -7 4 -9 3 -5 -4 3 -6 -50 -48 -129 -101
l-134 -91 -16 29 c-8 16 -24 36 -36 44 -20 14 -18 16 44 68 35 30 120 93 188
141 349 246 576 466 664 645 41 85 60 176 48 234 -6 30 -6 49 0 49 5 0 42 -25
82 -55z m246 -342 c1 -61 -21 -125 -77 -232 -57 -107 -114 -192 -172 -252 -38
-40 -49 -46 -61 -36 -14 10 -14 10 -4 -4 10 -13 6 -21 -25 -51 -71 -67 -131
-110 -143 -102 -7 4 -9 3 -6 -3 4 -6 -15 -25 -43 -43 -60 -39 -251 -133 -303
-150 -40 -12 -92 -6 -82 10 3 5 46 30 96 55 260 131 513 331 636 503 26 36 43
69 39 77 -11 29 -42 15 -77 -32 -111 -155 -341 -336 -599 -470 -143 -75 -198
-95 -240 -91 -33 3 -32 4 61 68 189 129 228 156 307 212 105 75 247 193 295
247 21 24 42 39 49 35 7 -5 8 -3 3 6 -5 8 2 22 19 39 35 35 136 164 136 174 0
5 5 5 12 1 6 -4 8 -3 5 3 -4 6 9 41 29 79 l35 69 -6 -90 c-3 -49 -8 -110 -11
-133 -6 -41 -5 -44 17 -40 33 4 51 71 53 195 l1 101 28 -48 c20 -35 28 -63 28
-97z m-1842 -237 c6 -24 24 -74 41 -111 16 -37 27 -72 23 -77 -3 -6 -1 -8 5
-4 14 8 100 -155 109 -207 7 -45 11 -46 -64 18 -51 44 -107 129 -99 151 3 8 2
13 -3 10 -13 -8 -29 67 -37 172 -7 100 5 125 25 48z m1700 -381 c24 -57 78
-111 153 -150 40 -21 76 -43 80 -48 11 -18 -3 -37 -44 -58 -78 -40 -96 -84
-63 -150 20 -37 14 -46 -43 -70 l-46 -20 32 -20 c48 -28 49 -44 7 -80 -50 -45
-58 -69 -43 -140 11 -52 10 -61 -4 -75 -40 -40 -192 -35 -341 10 -113 34 -142
36 -142 11 0 -13 13 -27 40 -40 52 -26 53 -27 36 -33 -8 -3 -34 -23 -58 -45
-49 -45 -95 -132 -120 -227 -21 -84 -22 -254 -1 -332 9 -32 13 -58 9 -58 -26
0 -239 424 -270 540 -12 41 -32 96 -45 122 l-24 47 34 11 c40 13 81 63 95 114
8 27 15 36 32 36 40 1 105 37 121 69 31 59 12 145 -49 225 -28 37 -31 46 -12
46 6 0 64 25 127 56 169 82 299 172 415 288 l100 101 6 -50 c3 -27 11 -63 18
-80z m-1529 -135 c105 -26 150 -47 150 -68 0 -25 -19 -42 -47 -42 -33 0 -28
-14 9 -25 43 -13 48 -40 11 -58 -15 -8 -80 -24 -144 -36 -124 -22 -242 -59
-296 -91 -19 -11 -38 -20 -44 -20 -20 0 -7 50 31 113 36 60 40 72 40 135 0 39
5 76 13 85 29 40 134 43 277 7z m353 -40 c49 -39 42 -116 -14 -145 -35 -19
-53 -19 -89 0 -53 27 -57 115 -7 150 30 21 80 19 110 -5z m218 -94 c169 -36
317 -160 307 -259 -3 -35 -25 -50 -93 -64 -37 -7 -43 -13 -73 -75 -19 -38 -37
-68 -41 -68 -4 0 -27 38 -50 85 -30 60 -67 113 -131 184 -50 55 -90 106 -90
112 0 8 16 10 50 7 53 -5 56 3 10 27 -21 11 -28 20 -23 33 14 36 34 39 134 18z
m-350 -106 l28 -21 -36 -71 c-47 -93 -55 -163 -42 -353 6 -82 8 -183 5 -224
-12 -146 -77 -237 -228 -317 -62 -33 -114 -70 -157 -112 l-63 -62 3 71 4 72
-40 14 c-22 7 -46 16 -54 18 -8 3 40 32 105 64 132 65 189 115 227 199 18 41
22 75 28 252 7 214 15 263 55 343 24 46 112 147 128 147 4 0 21 -9 37 -20z
m163 -111 c42 -141 65 -295 78 -523 14 -249 6 -337 -48 -512 -21 -68 -39 -150
-42 -191 -2 -40 -8 -73 -12 -73 -3 0 -28 32 -54 70 -27 39 -54 70 -61 70 -7 0
-36 -19 -64 -41 -29 -23 -54 -39 -57 -36 -8 7 -7 168 2 212 10 58 39 120 91
200 79 119 86 157 76 380 -18 420 -9 535 42 535 19 0 25 -12 49 -91z m-354 56
c0 -3 -9 -24 -21 -46 -28 -56 -70 -73 -184 -73 -49 -1 -103 3 -119 7 -25 7
-27 10 -15 21 41 39 339 119 339 91z m478 -153 c37 -46 78 -129 69 -138 -12
-12 -79 48 -93 83 -21 49 -28 93 -16 93 6 0 24 -17 40 -38z m-260 -256 c4
-148 2 -193 -12 -246 -21 -81 -36 -99 -24 -28 5 29 6 134 3 233 -7 190 -1 273
18 240 5 -10 12 -100 15 -199z m375 -118 c8 -18 32 -76 52 -128 80 -203 204
-422 299 -526 30 -34 52 -65 48 -69 -4 -5 -2 -5 4 -2 7 4 17 0 24 -8 9 -11 -2
-10 -57 5 -167 46 -316 149 -428 296 -36 46 -37 51 -31 105 6 52 -6 307 -19
403 l-6 38 50 -41 c27 -22 55 -56 64 -73z"/>
<path d="M1536 992 c-3 -5 16 -74 42 -153 62 -191 63 -191 162 -22 85 144 87
148 66 156 -19 7 -33 -10 -96 -121 -28 -51 -55 -90 -59 -87 -3 4 -22 57 -41
118 -24 77 -41 113 -52 115 -9 2 -19 -1 -22 -6z"/>
<path d="M3355 922 l-60 -76 -10 64 c-7 47 -15 66 -27 68 -9 2 -19 -1 -22 -7
-9 -14 21 -272 33 -284 5 -5 16 -7 24 -4 12 4 14 20 9 73 -6 77 -11 78 90 -4
42 -33 74 -52 83 -48 26 9 17 22 -55 81 -38 31 -70 59 -70 62 0 2 23 32 50 66
28 34 50 67 50 74 0 33 -40 5 -95 -65z"/>
<path d="M1867 963 c-7 -11 -15 -81 -23 -196 l-7 -99 24 4 c23 3 24 7 36 143
6 77 9 143 6 148 -2 4 -10 7 -18 7 -8 0 -16 -3 -18 -7z"/>
<path d="M3124 863 l7 -108 -43 45 c-24 25 -67 72 -96 104 -75 82 -82 72 -71
-99 10 -147 12 -155 35 -155 14 0 15 13 12 105 -1 58 0 105 3 105 4 0 44 -43
90 -95 50 -56 92 -95 103 -95 18 0 18 6 12 113 -10 165 -15 187 -38 187 -20 0
-20 -5 -14 -107z"/>
<path d="M1944 949 c-10 -17 8 -28 56 -31 l45 -3 0 -129 c0 -94 3 -130 12
-133 19 -7 33 40 33 106 0 32 3 79 6 105 l7 46 53 0 c41 0 54 4 54 15 0 19
-20 22 -152 29 -71 4 -109 2 -114 -5z"/>
<path d="M2802 804 c4 -108 9 -148 19 -154 29 -19 37 8 33 113 -8 164 -12 187
-36 187 -20 0 -21 -3 -16 -146z"/>
<path d="M2279 802 c-36 -75 -64 -143 -61 -150 8 -24 33 -12 48 23 l14 35 78
0 78 0 17 -36 c12 -24 23 -34 35 -32 22 5 21 10 -46 166 -76 177 -77 177 -163
-6z m116 18 c9 -25 19 -51 22 -57 4 -10 -10 -13 -51 -13 -65 0 -66 3 -31 79
28 59 33 58 60 -9z"/>
<path d="M2560 807 c0 -75 3 -142 6 -151 5 -13 22 -16 88 -16 88 0 113 9 102
35 -5 14 -17 16 -74 14 l-67 -4 -5 125 c-5 120 -6 125 -27 128 -23 3 -23 3
-23 -131z"/>
</g>
</svg>
